<svg xmlns="http://www.w3.org/2000/svg" width="600" height="390" viewBox="0 0 600 390" role="img" aria-labelledby="title desc"><title id="title">CineFlow</title><desc id="desc">Schematic of parallel video scenes with dependencies; reported 1.7–5.5x speedup.</desc><rect x="1" y="1" width="598" height="388" rx="10" fill="#eef1fb" stroke="#d3ddd6"/><path d="M30 25L68 25" fill="none" stroke="#425cbb" stroke-width="3" stroke-dasharray=""/><text x="30" y="66" font-family="Georgia, Times New Roman, serif" font-size="42" font-weight="500" fill="#222b2a" >CineFlow</text><text x="31" y="99" font-family="system-ui, -apple-system, Segoe UI, sans-serif" font-size="21" font-weight="400" fill="#586662" >Dependency-aware video generation</text><text x="30" y="142" font-family="ui-monospace, SFMono-Regular, Consolas, monospace" font-size="13" font-weight="500" fill="#586662" >SCENE A</text><text x="30" y="226" font-family="ui-monospace, SFMono-Regular, Consolas, monospace" font-size="13" font-weight="500" fill="#586662" >SCENE B</text><rect x="122" y="153" width="98" height="64" rx="4" fill="#ffffff" stroke="#d3ddd6"/><circle cx="198" cy="168" r="6" fill="#425cbb" opacity=".6"/><path d="M125 207L147 177L166 196L184 174L217 207Z" fill="#425cbb" opacity=".25"/><path d="M126 208L216 208" fill="none" stroke="#425cbb" stroke-width="1.5" stroke-dasharray=""/><rect x="132" y="196" width="25" height="9" rx="2" fill="#425cbb" stroke="none"/><circle cx="137" cy="207" r="2" fill="#425cbb"/><circle cx="151" cy="207" r="2" fill="#425cbb"/><path d="M128 212L214 212" fill="none" stroke="#425cbb" stroke-width="1" stroke-dasharray=""/><path d="M221 185L231 185" fill="none" stroke="#425cbb" stroke-width="1.5" stroke-dasharray=""/><rect x="234" y="153" width="98" height="64" rx="4" fill="#ffffff" stroke="#d3ddd6"/><circle cx="304" cy="170" r="6" fill="#425cbb" opacity=".6"/><path d="M237 207L259 177L278 196L296 174L329 207Z" fill="#425cbb" opacity=".25"/><path d="M238 208L328 208" fill="none" stroke="#425cbb" stroke-width="1.5" stroke-dasharray=""/><rect x="258" y="196" width="25" height="9" rx="2" fill="#425cbb" stroke="none"/><circle cx="263" cy="207" r="2" fill="#425cbb"/><circle cx="277" cy="207" r="2" fill="#425cbb"/><path d="M240 212L326 212" fill="none" stroke="#425cbb" stroke-width="1" stroke-dasharray=""/><path d="M333 185L343 185" fill="none" stroke="#425cbb" stroke-width="1.5" stroke-dasharray=""/><rect x="346" y="153" width="98" height="64" rx="4" fill="#ffffff" stroke="#d3ddd6"/><circle cx="410" cy="172" r="6" fill="#425cbb" opacity=".6"/><path d="M349 207L371 177L390 196L408 174L441 207Z" fill="#425cbb" opacity=".25"/><path d="M350 208L440 208" fill="none" stroke="#425cbb" stroke-width="1.5" stroke-dasharray=""/><rect x="384" y="196" width="25" height="9" rx="2" fill="#425cbb" stroke="none"/><circle cx="389" cy="207" r="2" fill="#425cbb"/><circle cx="403" cy="207" r="2" fill="#425cbb"/><path d="M352 212L438 212" fill="none" stroke="#425cbb" stroke-width="1" stroke-dasharray=""/><path d="M445 185L455 185" fill="none" stroke="#425cbb" stroke-width="1.5" stroke-dasharray=""/><rect x="458" y="153" width="98" height="64" rx="4" fill="#ffffff" stroke="#d3ddd6"/><circle cx="516" cy="174" r="6" fill="#425cbb" opacity=".6"/><path d="M461 207L483 177L502 196L520 174L553 207Z" fill="#425cbb" opacity=".25"/><path d="M462 208L552 208" fill="none" stroke="#425cbb" stroke-width="1.5" stroke-dasharray=""/><rect x="510" y="196" width="25" height="9" rx="2" fill="#425cbb" stroke="none"/><circle cx="515" cy="207" r="2" fill="#425cbb"/><circle cx="529" cy="207" r="2" fill="#425cbb"/><path d="M464 212L550 212" fill="none" stroke="#425cbb" stroke-width="1" stroke-dasharray=""/><rect x="122" y="237" width="98" height="64" rx="4" fill="#ffffff" stroke="#d3ddd6"/><circle cx="198" cy="252" r="6" fill="#425cbb" opacity=".6"/><path d="M126 287Q138 279 150 287T174 287T198 287T216 287" fill="none" stroke="#425cbb" opacity=".5"/><path d="M135 279H161L156 285H140Z" fill="#425cbb"/><path d="M147 252V277H161Z" fill="#425cbb" opacity=".65"/><path d="M128 296L214 296" fill="none" stroke="#425cbb" stroke-width="1" stroke-dasharray=""/><path d="M221 269L231 269" fill="none" stroke="#425cbb" stroke-width="1.5" stroke-dasharray=""/><rect x="234" y="237" width="98" height="64" rx="4" fill="#ffffff" stroke="#d3ddd6"/><circle cx="304" cy="254" r="6" fill="#425cbb" opacity=".6"/><path d="M238 287Q250 279 262 287T286 287T310 287T328 287" fill="none" stroke="#425cbb" opacity=".5"/><path d="M261 279H287L282 285H266Z" fill="#425cbb"/><path d="M273 252V277H287Z" fill="#425cbb" opacity=".65"/><path d="M240 296L326 296" fill="none" stroke="#425cbb" stroke-width="1" stroke-dasharray=""/><path d="M333 269L343 269" fill="none" stroke="#425cbb" stroke-width="1.5" stroke-dasharray=""/><rect x="346" y="237" width="98" height="64" rx="4" fill="#ffffff" stroke="#d3ddd6"/><circle cx="410" cy="256" r="6" fill="#425cbb" opacity=".6"/><path d="M350 287Q362 279 374 287T398 287T422 287T440 287" fill="none" stroke="#425cbb" opacity=".5"/><path d="M387 279H413L408 285H392Z" fill="#425cbb"/><path d="M399 252V277H413Z" fill="#425cbb" opacity=".65"/><path d="M352 296L438 296" fill="none" stroke="#425cbb" stroke-width="1" stroke-dasharray=""/><path d="M445 269L455 269" fill="none" stroke="#425cbb" stroke-width="1.5" stroke-dasharray=""/><rect x="458" y="237" width="98" height="64" rx="4" fill="#ffffff" stroke="#d3ddd6"/><circle cx="516" cy="258" r="6" fill="#425cbb" opacity=".6"/><path d="M462 287Q474 279 486 287T510 287T534 287T552 287" fill="none" stroke="#425cbb" opacity=".5"/><path d="M513 279H539L534 285H518Z" fill="#425cbb"/><path d="M525 252V277H539Z" fill="#425cbb" opacity=".65"/><path d="M464 296L550 296" fill="none" stroke="#425cbb" stroke-width="1" stroke-dasharray=""/><path d="M164 218L164 228L388 228L388 237" stroke="#425cbb" stroke-width="1.5" fill="none"/><path d="M30 327L570 327" fill="none" stroke="#d3ddd6" stroke-width="1" stroke-dasharray=""/><text x="30" y="368" font-family="system-ui, -apple-system, Segoe UI, sans-serif" font-size="29" font-weight="650" fill="#425cbb" >1.7–5.5×</text><text x="200" y="367" font-family="system-ui, -apple-system, Segoe UI, sans-serif" font-size="18" font-weight="400" fill="#586662" >reported speedup</text><text x="560" y="367" font-family="system-ui, -apple-system, Segoe UI, sans-serif" font-size="25" font-weight="400" fill="#425cbb" >↗</text></svg>
